# xmcd
#
# Track frame offsets: 
#        150
#        11240
#        20587
#        32625
#        45517
#        56162
#        67957
#        80655
#        90990
#        102050
#        115722
#        127805
#        139360
#
# Disc length: 2030 seconds
#
# Revision: 1
# Processed by: cddbd v1.5.2PL0 Copyright (c) Steve Scherf et al.
# Submitted via: ExactAudioCopy v1.1
#
DISCID=a307ec0d
DTITLE=Maxine Brown - Out Of Sight
DYEAR=1968
DGENRE=R&B
TTITLE0=Sugar Dumplin' (stereo)
TTITLE1=Plum Outa Sight (stereo)
TTITLE2=Sunny (stereo)
TTITLE3=I Wish It Would Rain (stereo)
TTITLE4=I'm In Love (stereo)
TTITLE5=In My Entire Life (stereo)
TTITLE6=Don't Leave Me Baby (stereo)
TTITLE7=Just Give Me One Good Reason (stereo)
TTITLE8=Stop (stereo)
TTITLE9=Seems You've Forsaken My Love (stereo)
TTITLE10=When A Man Loves A Woman (stereo)
TTITLE11=Love In Them There Hills (mono)
TTITLE12=From Loving You (mono)
EXTD=
EXTT0=
EXTT1=
EXTT2=
EXTT3=
EXTT4=
EXTT5=
EXTT6=
EXTT7=
EXTT8=
EXTT9=
EXTT10=
EXTT11=
EXTT12=
PLAYORDER=
